<?xml version="1.0" encoding="utf-8"?>
<!-- Generator: Adobe Illustrator 22.0.0, SVG Export Plug-In . SVG Version: 6.00 Build 0)  -->
<svg version="1.1"
	 id="图层_1" xmlns:cc="http://creativecommons.org/ns#" xmlns:dc="http://purl.org/dc/elements/1.1/" xmlns:rdf="http://www.w3.org/1999/02/22-rdf-syntax-ns#"
	 xmlns="http://www.w3.org/2000/svg" xmlns:xlink="http://www.w3.org/1999/xlink" x="0px" y="0px" viewBox="0 0 586.7 283.1"
	 style="enable-background:new 0 0 586.7 283.1;" xml:space="preserve">
<style type="text/css">
	.st0{fill-rule:evenodd;clip-rule:evenodd;fill:#2963AE;}
	.st1{fill:#2963AE;}
</style>
<path class="st0" d="M316.2,119.8c0,0,9.5,0.2,12-2.4c-4.7-0.4-9.6,0-9.6,0V86.2c0,0,7.2,5.6,12,9.6c0.1-2.5,0-7.2,0-7.2h7.2
	c0,0-1.4,18.9,2.4,19.2c4,0,14.4,0,14.4,0V88.6h7.2c0,0,0.3,15,0,24c-7.8-2.4-21.6,0-21.6,0s2.1,1.6,7.2,2.4
	c11.1,3.3,41.7-8.5,40.9-36c-4.9-28.1-36.6-31.6-57.7-31.2c-7-36.6-59.5-34.5-62.5-9.6c-6-0.5-16.8-4-21.6-4.8
	c4.2-36,79-46.6,96.1,0c21.3-6.6,66.4,6,69.4,45.6c3.7,48.4-28.6,57.8-28.6,57.8S335,118.3,335,110.3c-3.8-1.2-3.6-14.5-4.4-14.5
	c-2.1,20.1,4.4,19.2,16.8,28.8c-29.3-0.1-40,10.2-62.5,16.8c0,0.8,0,1.6,0,2.4c3.2,0,6.4,0,9.6,0c18.5-8.1,50.7-24.8,72.1-9.6
	c-16.2-1-33-1.7-40.9,4.8c17-0.7,51.2-5.3,50.5,2.4c-16.5,1.7-40.9-0.8-40.9,0c-24.2-6.8-62.6,20-88.9,4.8c3.2-0.8,7.3,0.5,9.6-2.4
	c-15.9-3.8-26.3-10.8-36-21.6c11.9,5.3,23.9,16.7,40.9,9.6c-14,0.1-21.3-1.6-28.8-7.2c13.7,1.5,19-6.9,45.7-7.2
	c-4.8,5.6-9.6,11.2-14.4,16.8c4,0,8,0,12,0c10.4-3.2,23.8-6.7,33.6-12c0.6-9.6,0-50.5,0-50.5h7.2V119.8z M210.5,38.1
	c23.7-7.8,53.8,3.3,67.3,19.2c-26.4-0.8-40,2.9-43.3,4.8c20.4-0.3,43.9-0.9,50.5-2.4c5.6,4,16,12.8,21.6,16.8
	c-0.8,15.2-1.6,30.4-2.4,45.7c-2.4-1.6-2.4-0.8-4.8-2.4c0-9.6,1.2-26.4-2.4-31.2c-5.4-6.3-29.5-5.3-33.6,0
	c-15.8-11.3-43.7-23.9-57.7-19.2c-33.5,14.8-26.4,30.7-33.6,31.2C168.7,68,173.2,53.2,210.5,38.1z M285,55
	c22.9-0.5,46.3-1.5,62.5,4.8c7.1,8-0.4,11.6-21.6,21.6c11.4-9.6,17.9-14.1,14.4-19.2C328.9,55.5,286.4,58.1,285,55z M217.7,76.6h7.2
	V115h-7.2V76.6z M200.9,86.2c-11.3,20.7,18.3,38.8,36,55.3c-4-1.6-15.2-8-19.2-9.6c4,4,8,8,12,12c-23.3-3.5-36.1-6.2-43.3-28.8
	C186.6,91.7,191.2,86.2,200.9,86.2z M260.9,93.4c0.2,6,0.3,18.3,0,21.6c-6.6-2.1-21.9,0.6-26.4-2.4c-4.5-3-3.5-11.6,0-14.4
	c16.3-0.6,19.2,0,19.2,0s2-5.6-2.4-7.2c-13.3,0.3-19.2,6.5-16.8-2.4C247.2,84.8,260.8,87.3,260.9,93.4z M268.1,88.6
	c1.6,0.2,4.5,0.2,4.5,0.2s1.9,2.8,2.7,2.2c4.6-3.5,12.6-3.2,19.2,0c2.2,2.1,0.8,16.8,0,24c-5-0.2-6.4-4-9.6-7.2
	c-3.2-2.4-7.6-5.4-9.6-9.6c0-3.2,2.4-2.4,12-2.4c0.1,9.7,0.8,11.9,4.8,14.4c-0.8-4.8,2.3-13.2-2.4-16.8c-5.9-2.2-13.9-1.7-16.8,2.4
	c-0.8,6.4,0.8,12.8,0,19.2c-0.8,0-4,0-4.8,0C268.1,106.2,268.1,97.4,268.1,88.6z M239.3,103c0,0-3.2,4,0,7.2c4,0,10.4,0,14.4,0
	c0-2.4,0-4.8,0-7.2C248.9,103,244.1,103,239.3,103z"/>
<path class="st0" d="M455.6,232.8c17.5-0.3,26.2,13,25.3,24.7c-1.2,16.8-15.7,23.2-28.6,23.2c0,0,0,0,0,0H397c-15,0-30-9-30-27
	c0-12.4,6.7-20.3,16-24.6c0-3.1,0-7.3,0-7.3h18.2c0,0,0,7.2,0,13.3c-9.6,1.2-18.7,8.3-18.7,18.2c0,10.7,7.6,14.4,18.3,14.4
	c0,0,0,0,0,0h49.6c0,0,0,0,0,0c8.6,0,16.7-2.9,16.2-11.6c-0.3-6.9-3.1-8.1-11.6-9.5"/>
<path class="st1" d="M480.5,221.7v-15.6H366.2v15.6 M366.2,182.7H481v-15.6H366.2V182.7z"/>
<path class="st1" d="M196.2,183v5h16.7v-5h13.7v-13h-13.7v-4.3h-16.7v4.4h-51.3v-4.6h-16.5v4.6h-15.7V183h15.7v5h16.5v-5H196.2z
	 M112.5,280.5h115.3v-12.9h-4.4v-35.2H115.9v35.2h-3.4V280.5z M192.1,267.5v-22.2h16.4v22.2H192.1z M161.6,267.5v-22.2h15.9v22.2
	H161.6z M131,267.5v-22.2h16.1v22.2H131z M115.7,191.3v36.9l14.9-0.1v-36.8H115.7z M142.2,191.3v36.9l14.9-0.1v-36.8H142.2z
	 M163.9,227.6h11.6c2.9,0,5.2-0.6,7.1-1.7c1.8-1.1,3.6-4,5.2-8.7l4.9-13.7h2.6l5.9,16.2c0.9,2.5,2.1,4.3,3.6,5.5
	c1.5,1.2,2.8,1.9,3.8,2.1c1,0.2,2.3,0.3,4,0.3h14.9l0.1-12.3h-4.1c-4,0-6.4-0.1-7.1-0.2c-0.7-0.1-1.2-0.5-1.4-1.2l-3.6-10.5h15.9
	l0.1-13.3h-47.7l-6.6,20.3c-0.7,2-1.4,3.2-2.1,3.6c-0.7,0.5-1.8,0.7-3.3,0.7h-3.7L163.9,227.6z"/>
<path class="st1" d="M246.3,187.3l6,11.7c1,2,2.3,3.6,3.9,4.8c1.6,1.1,4.9,1.7,10,1.7h7.1v-11.8c-3.1,0.2-5.4-0.3-6.8-1.6
	c-1.4-1.2-2.7-2.9-4-4.9H246.3z M245.7,280.3h88.5c6.2,0,10.3-1.4,12.2-4.3c2-2.8,2.9-5.8,2.9-8.9v-40H245.7V280.3z M332.9,240.1v8
	h-71.2v-8H332.9z M332.9,258.9v5.3c0,0.9-0.2,1.7-0.7,2.4c-0.4,0.7-1.1,1.1-2,1.1h-68.6v-8.8H332.9z M330.6,192.9
	c-1,0.5-2,0.7-3.1,0.7h-3.2v11.8h8.3c3,0,5.3-0.4,7-1.3c1.7-0.9,3.3-2.6,5-5.2l7.1-11.7h-16.1C333.2,190.6,331.6,192.5,330.6,192.9z
	 M353.6,184.3v-12.9h-10.4v-6.7h-15l-7.9,6.7h-46.1l-6.3-6h-14.2v6h-10.6v12.9h33.4v26.1h-35.5v12.8h112.5v-12.8h-34.8v-26.1H353.6z
	 M303.5,184.3v26.1h-12.1v-24.5v-1.6H303.5z"/>
</svg>
