<?xml version="1.0" encoding="iso-8859-1"?>
<!-- Generator: Adobe Illustrator 22.0.0, SVG Export Plug-In . SVG Version: 6.00 Build 0)  -->
<svg version="1.1" id="&#x56FE;&#x5C42;_1" xmlns="http://www.w3.org/2000/svg" xmlns:xlink="http://www.w3.org/1999/xlink" x="0px"
	 y="0px" viewBox="0 0 400 70" style="enable-background:new 0 0 400 70;" xml:space="preserve">
<path style="fill-rule:evenodd;clip-rule:evenodd;fill:#2A63AF;" d="M67.228,54.763c0,0,4.343,0.091,5.485-1.097
	c-2.152-0.201-4.388,0-4.388,0V39.404c0,0,3.291,2.56,5.485,4.388c0.031-1.147,0-3.291,0-3.291h3.291c0,0-0.654,8.608,1.097,8.777
	c1.828,0,6.582,0,6.582,0v-8.777h3.291c0,0,0.137,6.857,0,10.971c-3.565-1.097-9.874,0-9.874,0s0.96,0.731,3.291,1.097
	c5.078,1.508,19.058-3.885,18.65-16.456c-2.235-12.829-16.72-14.445-26.33-14.262c-3.208-16.696-27.152-15.77-28.524-4.388
	c-2.753-0.224-7.679-1.84-9.874-2.194c1.92-16.456,36.066-21.256,43.883,0c9.736-3.017,30.306,2.743,31.7,20.809
	c1.706,22.111-13.05,26.365-13.05,26.365s-22.14-8.408-22.134-12.049c-1.714-0.537-1.657-6.599-2.001-6.601
	c-0.96,9.177,2.015,8.777,7.679,13.165c-13.395-0.03-18.271,4.667-28.524,7.679c0,0.366,0,0.731,0,1.097c1.463,0,2.926,0,4.388,0
	c8.429-3.718,23.166-11.308,32.912-4.388c-7.405-0.457-15.085-0.777-18.65,2.194c7.77-0.32,23.359-2.423,23.038,1.097
	c-7.542,0.777-18.65-0.366-18.65,0c-11.069-3.124-28.583,9.113-40.591,2.194c1.463-0.366,3.337,0.229,4.388-1.097
	c-7.24-1.749-12.002-4.946-16.456-9.874c5.413,2.442,10.89,7.621,18.65,4.388c-6.396,0.051-9.717-0.73-13.165-3.291
	c6.262,0.686,8.686-3.154,20.844-3.291c-2.194,2.56-4.388,5.12-6.582,7.679c1.828,0,3.657,0,5.485,0
	c4.753-1.463,10.88-3.063,15.359-5.485c0.288-4.366,0-23.038,0-23.038h3.291V54.763z M18.957,17.463
	c10.834-3.565,24.578,1.506,30.718,8.777c-12.067-0.366-18.239,1.326-19.747,2.194c9.304-0.128,20.038-0.416,23.038-1.097
	c2.56,1.828,7.314,5.851,9.874,7.679c-0.366,6.947-0.731,13.897-1.097,20.844c-1.097-0.731-1.097-0.366-2.194-1.097
	c0-4.388,0.549-12.068-1.097-14.262c-2.449-2.896-13.478-2.44-15.359,0c-7.219-5.159-19.962-10.924-26.33-8.777
	C1.451,38.482,4.732,45.746,1.404,45.986C-0.104,31.089,1.953,24.319,18.957,17.463z M52.966,25.142
	c10.447-0.227,21.144-0.698,28.524,2.194c3.245,3.657-0.183,5.302-9.874,9.874c5.211-4.388,8.182-6.445,6.582-8.777
	C73.034,25.371,53.606,26.559,52.966,25.142z M22.249,35.016h3.291v17.553h-3.291V35.016z M14.569,39.404
	c-5.141,9.427,8.376,17.69,16.456,25.232c-1.828-0.731-6.948-3.657-8.777-4.388c1.828,1.828,3.657,3.657,5.485,5.485
	c-10.659-1.597-16.488-2.811-19.747-13.165C8.078,41.918,10.181,39.404,14.569,39.404z M41.996,42.695
	c0.081,2.741,0.137,8.365,0,9.874c-3.017-0.96-10.011,0.274-12.068-1.097s-1.6-5.302,0-6.582c7.445-0.295,8.777,0,8.777,0
	s0.914-2.56-1.097-3.291c-6.084,0.136-8.774,2.956-7.679-1.097C35.733,38.764,41.914,39.925,41.996,42.695z M45.287,40.501
	c0.714,0.073,2.057,0.103,2.057,0.103s0.851,1.29,1.234,0.994c2.093-1.619,5.731-1.45,8.777,0c1.006,0.96,0.366,7.68,0,10.971
	c-2.285-0.091-2.926-1.829-4.388-3.291c-1.463-1.097-3.474-2.469-4.388-4.388c0-1.463,1.097-1.097,5.485-1.097
	c0.046,4.434,0.366,5.44,2.194,6.582c-0.366-2.194,1.051-6.034-1.097-7.679c-2.697-1.006-6.354-0.777-7.679,1.097
	c-0.366,2.925,0.366,5.851,0,8.777c-0.366,0-1.828,0-2.194,0C45.287,48.546,45.287,44.523,45.287,40.501z M32.122,47.083
	c0,0-1.463,1.828,0,3.291c1.828,0,4.754,0,6.582,0c0-1.097,0-2.194,0-3.291C36.511,47.083,34.316,47.083,32.122,47.083z"/>
<path style="fill-rule:evenodd;clip-rule:evenodd;fill:#2A63AF;" d="M289.764,41.568c8.428-0.133,12.621,6.264,12.208,11.893
	c-0.592,8.086-7.594,11.169-13.797,11.169c0,0,0,0,0,0h-26.684c-7.237,0-14.485-4.36-14.485-13.031c0-5.957,3.24-9.779,7.697-11.859
	c0-1.472,0-3.542,0-3.542h8.783c0,0,0,3.449,0,6.395c-4.621,0.569-9.036,4.011-9.036,8.76c0,5.141,3.648,6.947,8.817,6.947
	c0,0,0.001,0,0.001,0h23.918c0.001,0,0.001,0,0.002,0c4.135,0,8.034-1.404,7.833-5.577c-0.16-3.311-1.477-3.905-5.612-4.593"/>
<path style="fill:#2A63AF;" d="M301.779,36.217v-7.506h-55.141v7.506 M246.638,17.392h55.352V9.857h-55.352V17.392z"/>
<path style="fill:#2A63AF;" d="M164.63,17.542v2.432h8.071v-2.432h6.595v-6.275h-6.595V9.196h-8.071v2.102h-24.725V9.076h-7.98
	v2.222h-7.559v6.245h7.559v2.432h7.98v-2.432H164.63z M124.275,64.558h55.593v-6.245h-2.108V41.351h-51.829v16.963h-1.656V64.558z
	 M162.672,58.313V47.625h7.89v10.688H162.672z M147.976,58.313V47.625h7.679v10.688H147.976z M133.189,58.313V47.625h7.77v10.688
	H133.189z M125.811,21.535v17.803l7.168-0.06V21.535H125.811z M138.61,21.535v17.803l7.167-0.06V21.535H138.61z M149.06,39.069
	h5.601c1.385,0,2.519-0.27,3.403-0.811c0.883-0.54,1.726-1.941,2.53-4.203l2.349-6.605h1.265l2.831,7.806
	c0.422,1.201,0.994,2.082,1.717,2.642c0.723,0.56,1.33,0.896,1.822,1.006c0.492,0.11,1.129,0.165,1.912,0.165h7.198l0.03-5.914
	h-1.988c-1.927,0-3.072-0.025-3.433-0.075c-0.361-0.05-0.593-0.245-0.693-0.585l-1.717-5.044h7.679l0.03-6.395h-23.008l-3.192,9.787
	c-0.321,0.941-0.658,1.526-1.009,1.756c-0.351,0.23-0.878,0.345-1.581,0.345h-1.777L149.06,39.069z"/>
<path style="fill:#2A63AF;" d="M188.812,19.614l2.891,5.644c0.482,0.981,1.109,1.747,1.882,2.297
	c0.773,0.551,2.374,0.826,4.803,0.826h3.433v-5.674c-1.506,0.1-2.6-0.15-3.283-0.751c-0.683-0.6-1.325-1.381-1.927-2.342H188.812z
	 M188.511,64.498h42.704c2.991,0,4.959-0.686,5.903-2.057c0.943-1.371,1.415-2.797,1.415-4.278V38.889h-50.022V64.498z
	 M230.582,45.073v3.843h-34.362v-3.843H230.582z M230.582,54.14v2.552c0,0.42-0.105,0.806-0.316,1.156
	c-0.211,0.35-0.537,0.525-0.979,0.525h-33.067V54.14H230.582z M229.468,22.346c-0.462,0.24-0.964,0.36-1.506,0.36h-1.536v5.674
	h4.005c1.445,0,2.575-0.205,3.388-0.615c0.813-0.41,1.611-1.246,2.394-2.507l3.433-5.644h-7.77
	C230.733,21.195,229.93,22.106,229.468,22.346z M240.551,18.173v-6.245h-4.999V8.686h-7.228l-3.795,3.242h-22.225l-3.042-2.912
	h-6.866v2.912h-5.09v6.245h16.112v12.58h-17.136v6.185h54.268v-6.185h-16.804v-12.58H240.551z M216.398,18.173v12.58h-5.812V18.923
	v-0.751H216.398z"/>
</svg>
